<svg xmlns="http://www.w3.org/2000/svg" viewBox="0 0 64 64"><defs><linearGradient id="g" x1="0" y1="0" x2="1" y2="1"><stop offset="0" stop-color="#ffffff"/><stop offset="1" stop-color="#e4e8f0"/></linearGradient></defs><rect width="64" height="64" rx="14" fill="url(#g)"/><g transform="translate(14 14) scale(1.5)" fill="none" stroke="#1d1d1f" stroke-width="1.75" stroke-linecap="round" stroke-linejoin="round"><path d="M4 7.5A2.5 2.5 0 0 1 6.5 5H18a1 1 0 0 1 1 1v1.5"/><path d="M4 7.5V17a2 2 0 0 0 2 2h13a1 1 0 0 0 1-1v-7a1 1 0 0 0-1-1H6.5A2.5 2.5 0 0 1 4 7.5z"/><circle cx="16" cy="14.5" r="1.1" fill="#1d1d1f" stroke="none"/></g></svg>